<svg width="60" height="50" viewBox="0 0 60 50" xmlns="http://www.w3.org/2000/svg">
<path d="M42.9873 0.00116125C37.9821 -0.0255871 33.224 2.17258 29.9999 6.00109C26.7961 2.14641 22.0247 -0.058005 17.0126 0.00116125C7.61675 0.00116125 0 7.61791 0 17.0137C0 33.1151 28.1012 48.8365 29.2405 49.4441C29.7002 49.7513 30.2997 49.7513 30.7595 49.4441C31.8988 48.8365 60 33.3429 60 17.0137C60 7.61791 52.3831 0.00116125 42.9873 0.00116125ZM29.9999 46.4062C25.5949 43.8239 3.03798 30.0771 3.03798 17.0137C3.03798 9.2958 9.29463 3.03899 17.0127 3.03899C21.739 2.97692 26.1621 5.36087 28.7089 9.34275C29.226 10.0558 30.2234 10.2147 30.9364 9.69746C31.0726 9.59861 31.1924 9.47896 31.2911 9.34275C35.5149 2.88316 44.1756 1.07066 50.6352 5.29444C54.5896 7.88016 56.9697 12.2889 56.9619 17.0136C56.962 30.2289 34.405 43.8998 29.9999 46.4062Z"/>
</svg>
