<svg width="60" height="54" viewBox="0 0 60 54" xmlns="http://www.w3.org/2000/svg">
<path d="M52.0964 19.3993H24.2057C23.7203 19.3993 23.3268 19.7929 23.3268 20.2782C23.3268 20.7636 23.7203 21.1571 24.2057 21.1571H52.0964C52.5817 21.1571 52.9753 20.7636 52.9753 20.2782C52.9753 19.7929 52.5817 19.3993 52.0964 19.3993Z"/>
<path d="M52.0964 26.118H24.2057C23.7203 26.118 23.3268 26.5116 23.3268 26.997C23.3268 27.4823 23.7203 27.8759 24.2057 27.8759H52.0964C52.5817 27.8759 52.9753 27.4823 52.9753 26.997C52.9753 26.5116 52.5817 26.118 52.0964 26.118Z"/>
<path d="M52.0964 32.8368H24.2057C23.7203 32.8368 23.3268 33.2303 23.3268 33.7157C23.3268 34.2011 23.7203 34.5946 24.2057 34.5946H52.0964C52.5817 34.5946 52.9753 34.2011 52.9753 33.7157C52.9753 33.2303 52.5817 32.8368 52.0964 32.8368Z"/>
<path d="M54.888 11.7128H21.4139C18.5951 11.7128 16.3019 14.0059 16.3019 16.8247V37.8736C16.3019 40.6923 18.595 42.9855 21.4139 42.9855H44.8761C45.127 42.9855 45.3601 43.0984 45.5157 43.2954L53.0924 52.8875C53.391 53.2656 53.8267 53.4716 54.283 53.4716C54.4525 53.4716 54.625 53.4431 54.7942 53.3843C55.4185 53.1675 55.8219 52.6004 55.8219 51.9396V42.8982C58.192 42.4555 59.9999 40.3601 59.9999 37.8736V16.8246C59.9999 14.0059 57.7068 11.7128 54.888 11.7128ZM58.2421 37.8736C58.2421 39.699 56.757 41.2031 54.9316 41.2263C54.4506 41.2325 54.0639 41.6242 54.0639 42.1052V51.2816L46.8951 42.2058C46.4042 41.5841 45.6683 41.2276 44.8761 41.2276H21.4139C19.5644 41.2276 18.0597 39.7229 18.0597 37.8735V16.8246C18.0597 14.9751 19.5643 13.4705 21.4139 13.4705H54.888C56.7374 13.4705 58.2421 14.9751 58.2421 16.8246V37.8736Z"/>
<path d="M12.9485 26.2454C12.3473 26.3307 11.809 26.6402 11.4326 27.1167L5.39496 34.7604V27.0997C5.39496 26.6187 5.00824 26.227 4.5273 26.2208C3.00023 26.2014 1.75781 24.9431 1.75781 23.4159V5.09239C1.75781 3.54516 3.01664 2.28633 4.56387 2.28633H33.7041C35.2513 2.28633 36.5101 3.54516 36.5101 5.09239V8.48285C36.5101 8.96825 36.9036 9.36176 37.389 9.36176C37.8744 9.36176 38.2679 8.96825 38.2679 8.48285V5.09239C38.2679 2.5759 36.2205 0.528519 33.7041 0.528519H4.56387C2.04738 0.528519 0 2.5759 0 5.09239V23.4159C0 25.6035 1.56691 27.4516 3.63727 27.8836V35.6609C3.63727 36.2852 4.01836 36.8211 4.60828 37.026C4.76824 37.0815 4.93113 37.1085 5.09144 37.1085C5.52234 37.1085 5.93426 36.9137 6.21633 36.5566L12.8121 28.2063C12.9073 28.0857 13.0436 28.0075 13.1957 27.9858C13.6762 27.9176 14.0106 27.4726 13.9423 26.992C13.8741 26.5114 13.4298 26.1769 12.9485 26.2454Z"/>
</svg>
