<svg width="57" height="48" viewBox="0 0 57 48" fill="none" xmlns="http://www.w3.org/2000/svg">
<path d="M55.3129 41.8125H52.1569L36.6237 8.91857L37.3083 6.52232C37.4839 5.90782 37.5319 5.26391 37.4495 4.63016C37.3671 3.99641 37.1559 3.38621 36.829 2.83706C36.5021 2.2879 36.0664 1.81139 35.5486 1.43681C35.0308 1.06222 34.4419 0.797478 33.818 0.658839L32.7151 0.413683C31.5488 0.155827 30.328 0.352396 29.3016 0.963331C28.2752 1.57427 27.5204 2.55359 27.191 3.70173L24.8736 11.8125H22.9902L21.6237 8.91857L22.3083 6.52232C22.4839 5.90782 22.5319 5.26391 22.4495 4.63016C22.3671 3.99641 22.1559 3.38621 21.829 2.83706C21.5021 2.2879 21.0664 1.81139 20.5486 1.43681C20.0308 1.06222 19.4419 0.797478 18.818 0.658839L17.6841 0.406886C16.525 0.152598 15.3126 0.346062 14.2903 0.948458C13.2679 1.55085 12.5111 2.51761 12.1719 3.65474L0.0355625 46.2442C0.00196774 46.3627 -0.00795819 46.4867 0.00635128 46.609C0.0206607 46.7313 0.0589254 46.8496 0.118961 46.9572C0.178996 47.0647 0.259626 47.1594 0.356247 47.2358C0.452868 47.3122 0.563589 47.3688 0.682086 47.4024C0.800583 47.436 0.924537 47.4459 1.04687 47.4316C1.1692 47.4173 1.28752 47.379 1.39507 47.319C1.50261 47.2589 1.59728 47.1783 1.67367 47.0817C1.75005 46.9851 1.80666 46.8743 1.84025 46.7558L3.24146 41.8125H16.3021L15.0365 46.2422C15.0026 46.3606 14.9924 46.4845 15.0065 46.6068C15.0205 46.7291 15.0584 46.8475 15.1182 46.9551C15.178 47.0628 15.2584 47.1576 15.3548 47.2341C15.4512 47.3107 15.5617 47.3676 15.6801 47.4014C15.7985 47.4353 15.9224 47.4455 16.0447 47.4315C16.167 47.4174 16.2854 47.3795 16.393 47.3197C16.5006 47.2599 16.5955 47.1796 16.672 47.0832C16.7486 46.9868 16.8055 46.8762 16.8393 46.7578L22.8692 25.6533L32.9027 46.9006C32.9786 47.0612 33.0986 47.1969 33.2486 47.292C33.3987 47.3871 33.5727 47.4375 33.7504 47.4375H55.3129C55.5615 47.4375 55.8 47.3387 55.9758 47.1629C56.1516 46.9871 56.2504 46.7487 56.2504 46.5V42.75C56.2504 42.5014 56.1516 42.2629 55.9758 42.0871C55.8 41.9113 55.5615 41.8125 55.3129 41.8125ZM28.9939 4.21689C29.1913 3.52789 29.6441 2.94017 30.26 2.57359C30.8759 2.20701 31.6084 2.08918 32.3082 2.24415L33.4113 2.48919C33.7856 2.57238 34.1389 2.73123 34.4496 2.95598C34.7603 3.18074 35.0217 3.46664 35.2178 3.79614C35.414 4.12563 35.5407 4.49175 35.5901 4.87199C35.6396 5.25224 35.6107 5.63858 35.5054 6.00728L34.9182 8.06251H27.8951L28.9939 4.21689ZM13.9704 4.18595C14.174 3.50379 14.628 2.92383 15.2413 2.56241C15.8547 2.20099 16.582 2.08483 17.2774 2.23724L18.4113 2.48919C18.7856 2.57238 19.139 2.73123 19.4496 2.95599C19.7603 3.18075 20.0218 3.46667 20.2179 3.79618C20.414 4.12568 20.5407 4.49182 20.5901 4.87208C20.6396 5.25234 20.6108 5.63869 20.5054 6.00739L19.9183 8.06251H12.8248L13.9704 4.18595ZM6.96275 28.6875L8.02599 24.9375H21.1236L20.0521 28.6875H6.96275ZM19.5165 30.5625L18.445 34.3125H5.36759L6.43084 30.5625H19.5165ZM8.55756 23.0625L9.6208 19.3125H19.8747L21.6455 23.0625H8.55756ZM10.1525 17.4375L11.2157 13.6875H17.2189L18.9897 17.4375H10.1525ZM3.77302 39.9375L4.83627 36.1875H17.9093L16.8379 39.9375H3.77302ZM39.3754 45.5625H34.3444L18.6606 12.3497C18.5848 12.189 18.4648 12.0532 18.3147 11.9581C18.1646 11.863 17.9906 11.8125 17.8129 11.8125H11.7473L12.279 9.93751H20.0314L35.7152 43.1503C35.791 43.311 35.911 43.4468 36.0611 43.5419C36.2112 43.637 36.3852 43.6875 36.5629 43.6875H39.3754V45.5625ZM41.2504 45.5625V42.75C41.2504 42.5014 41.1516 42.2629 40.9758 42.0871C40.8 41.9113 40.5615 41.8125 40.3129 41.8125H37.1569L23.8757 13.6875H32.2189L47.2709 45.5625H41.2504ZM54.3754 45.5625H49.3444L33.6606 12.3497C33.5848 12.189 33.4648 12.0532 33.3147 11.9581C33.1646 11.863 32.9906 11.8125 32.8129 11.8125H26.8237L27.3593 9.93751H35.0314L50.7152 43.1503C50.791 43.311 50.911 43.4468 51.0611 43.5419C51.2112 43.637 51.3852 43.6875 51.5629 43.6875H54.3754V45.5625Z" fill="#6481EA"/>
</svg>
