<svg width="60" height="38" viewBox="0 0 60 38" fill="none" xmlns="http://www.w3.org/2000/svg">
<path d="M59.3773 3.43145C58.991 3.20253 58.5133 3.1936 58.119 3.4086L44.3525 10.9255V6.41526C44.3485 2.90659 41.5052 0.0632986 37.9966 0.0593262H6.35593C2.84726 0.0632986 0.00397246 2.90659 0 6.41526V31.5113C0.00397246 35.0199 2.84726 37.8632 6.35593 37.8672H37.9966C41.5052 37.8632 44.3485 35.0199 44.3525 31.5113V27.083L58.1195 34.5998C58.5133 34.8149 58.9915 34.8064 59.3773 34.5775C59.7636 34.3481 60 33.9325 60 33.4841V4.52437C60 4.07548 59.7631 3.66036 59.3773 3.43145ZM41.8091 31.5118C41.8071 33.6172 40.101 35.3228 37.9956 35.3253H6.35593C4.25053 35.3228 2.54486 33.6172 2.54237 31.5118V6.41526C2.54486 4.31035 4.25053 2.60418 6.35593 2.6017H37.9966C40.1015 2.60418 41.8076 4.31035 41.8101 6.41526L41.8091 31.5118ZM57.4576 31.3419L44.3525 24.1865V13.8219L57.4576 6.66701V31.3419Z" fill="#6481EA"/>
</svg>
