<svg width="51" height="54" viewBox="0 0 51 54" xmlns="http://www.w3.org/2000/svg">
<path d="M25.4999 27.75C11.4394 27.75 0 39.0354 0 52.9062C0 53.51 0.496729 54 1.10873 54C1.72073 54 2.21745 53.51 2.21745 52.9062C2.21745 40.2406 12.6613 29.9375 25.5 29.9375C38.3387 29.9375 48.7825 40.2406 48.7825 52.9062C48.7825 53.51 49.2793 54 49.8913 54C50.5033 54 51 53.51 51 52.9062C50.9999 39.0331 39.5604 27.75 25.4999 27.75Z"/>
<path d="M25.4999 0.75C18.79 0.75 13.3283 6.20951 13.3283 12.9216C13.3283 19.6338 18.7901 25.0933 25.4999 25.0933C32.2098 25.0933 37.6716 19.6338 37.6716 12.9216C37.6716 6.20951 32.2099 0.75 25.4999 0.75ZM25.4999 22.8803C20.0094 22.8803 15.5413 18.4122 15.5413 12.9216C15.5413 7.43111 20.0094 2.963 25.4999 2.963C30.9905 2.963 35.4586 7.43111 35.4586 12.9216C35.4586 18.4122 30.9905 22.8803 25.4999 22.8803Z"/>
</svg>
