<svg width="47" height="60" viewBox="0 0 47 60" xmlns="http://www.w3.org/2000/svg">
<path d="M46.1274 12.1483L23.5768 0.13221C23.2423 -0.0463404 22.8413 -0.0438346 22.5093 0.138475L0.582639 12.1546C0.223031 12.352 0 12.7291 0 13.1395V28.8356C0.0131564 41.7382 7.65763 53.4111 19.4796 58.5803L22.5231 59.9065C22.8075 60.0306 23.1314 60.0312 23.4164 59.9078L26.8459 58.4268C38.8871 53.3697 46.7207 41.5841 46.722 28.5243V13.1395C46.722 12.7247 46.4933 12.3432 46.1274 12.1483ZM44.4766 28.5243C44.4741 40.6839 37.1786 51.6556 25.9669 56.3612L25.9594 56.365L22.9729 57.6543L20.3779 56.5222C9.37359 51.7108 2.25725 40.8461 2.24472 28.8356V13.8042L23.0562 2.39824L44.4766 13.8123V28.5243Z"/>
<path d="M14.7734 28.1077C14.3705 27.6359 13.662 27.5802 13.1902 27.983C12.7185 28.3852 12.6627 29.0944 13.0656 29.5655L18.9959 36.5102C19.3919 36.9738 20.0854 37.0371 20.5578 36.6524L34.3694 25.4156C34.8506 25.0247 34.9233 24.3174 34.5317 23.8362C34.1408 23.3557 33.4335 23.2824 32.9523 23.674L19.9914 34.2179L14.7734 28.1077Z"/>
</svg>
