<svg width="13" height="20" viewBox="0 0 13 20" xmlns="http://www.w3.org/2000/svg">
<path d="M6.49998 10.8232C9.6111 10.8232 12.1332 8.40035 12.1332 5.41158C12.1332 2.42281 9.61114 0 6.49998 0C3.38882 0 0.866795 2.42285 0.866795 5.41162C0.870614 8.39883 3.39045 10.8195 6.49998 10.8232ZM6.49998 2.49766C8.1752 2.49766 9.53326 3.80227 9.53326 5.41162C9.53326 7.02098 8.17524 8.32558 6.49998 8.32558C4.82472 8.32558 3.4667 7.02098 3.4667 5.41162C3.4667 3.80227 4.82476 2.49766 6.49998 2.49766Z"/>
<path d="M12.0179 13.3875C12.6301 13.0001 12.999 12.3434 12.9998 11.6391C13.0084 11.0547 12.6651 10.518 12.1185 10.2612C11.5569 9.99176 10.8846 10.0524 10.3852 10.4178C8.07027 12.039 4.93055 12.039 2.61567 10.4178C2.11542 10.0544 1.44435 9.99375 0.882358 10.2612C0.336004 10.518 -0.00747324 11.054 0.000123474 11.6383C0.00142345 12.3424 0.370169 12.999 0.98205 13.3866C1.76707 13.8882 2.62196 14.2806 3.52134 14.5522C3.67389 14.5977 3.8313 14.6399 3.99368 14.6788L1.37468 17.139C0.687647 17.7794 0.671031 18.8335 1.33763 19.4935C2.00423 20.1536 3.10153 20.1695 3.78861 19.5291C3.80291 19.5158 3.81696 19.5022 3.83078 19.4884L6.50007 16.8342L9.17456 19.4934C9.84059 20.1539 10.9379 20.1707 11.6255 19.5309C12.3131 18.8911 12.3305 17.8369 11.6645 17.1764C11.6506 17.1626 11.6364 17.149 11.622 17.1356L9.00727 14.6779C9.1696 14.638 9.32763 14.5955 9.48131 14.5505C10.3797 14.2799 11.2338 13.8884 12.0179 13.3875Z"/>
</svg>
