<svg xmlns="http://www.w3.org/2000/svg" xmlns:xlink="http://www.w3.org/1999/xlink"><symbol id="icon-adaptation" viewBox="0 0 60 52">
<path d="M59.5633 23.7333L31.562 0.848003C30.6525 0.104865 29.3463 0.104865 28.4373 0.848003L21.2651 6.71086V3.66787C21.2651 3.01062 20.7331 2.47968 20.0759 2.47968H13.1741C12.5168 2.47968 11.9848 3.01114 11.9848 3.66787V14.2954L0.436445 23.7333C-0.0724555 24.1481 -0.146544 24.8977 0.268142 25.4061C0.503593 25.6931 0.845926 25.8438 1.19121 25.8438C1.45564 25.8438 1.72093 25.7552 1.94215 25.5758L7.93688 20.675V50.5204C7.93688 51.1772 8.46886 51.7093 9.12472 51.7093H50.8754C51.5315 51.7093 52.0646 51.1773 52.0646 50.5204V20.6757L58.0594 25.5765C58.2802 25.7564 58.5464 25.8445 58.81 25.8445C59.1542 25.8445 59.4964 25.6936 59.732 25.4066C60.1463 24.8977 60.0722 24.1492 59.5633 23.7333ZM14.3628 4.85605H18.8863V8.65381L14.3628 12.3513V4.85605ZM49.6871 49.3312H10.3133V18.7322L28.9821 3.47406C29.5744 2.98979 30.425 2.98979 31.0175 3.47406L49.6871 18.7322V49.3312Z"/>
</symbol><symbol id="icon-education" viewBox="0 0 60 52">
<path d="M59 7.00176H55V2.00176C55.002 1.44951 54.5559 1.00013 54.0035 0.998258C53.9743 0.998133 53.9451 0.999383 53.916 1.00176L51.307 1.22176C44.9801 1.74501 38.7746 3.25813 32.917 5.70576L30 6.91876L27.086 5.70976C21.2278 3.26176 15.0215 1.74838 8.694 1.22476L6.084 1.00176C5.53363 0.955383 5.04987 1.36388 5.0035 1.91426C5.001 1.94338 4.99988 1.97263 5 2.00176V7.00176H1C0.44775 7.00176 0 7.44951 0 8.00176V50.0018C0 50.554 0.44775 51.0018 1 51.0018H59C59.5522 51.0018 60 50.554 60 50.0018V8.00176C60 7.44951 59.5522 7.00176 59 7.00176ZM2 49.0038V9.00176H5V44.0018C4.99813 44.5225 5.39612 44.9575 5.915 45.0018L8.606 45.2318C9.33937 45.2931 10.0726 45.3688 10.806 45.4588C11.051 45.4878 11.294 45.5268 11.539 45.5588C12.024 45.6238 12.509 45.6888 12.992 45.7658C13.28 45.8118 13.567 45.8658 13.854 45.9168C14.292 45.9938 14.73 46.0708 15.166 46.1568C15.466 46.2168 15.766 46.2828 16.066 46.3478C16.487 46.4378 16.908 46.5298 17.327 46.6298C17.627 46.7018 17.932 46.7788 18.234 46.8558C18.647 46.9618 19.059 47.0698 19.47 47.1838C19.77 47.2678 20.07 47.3558 20.37 47.4438C20.778 47.5644 21.185 47.6898 21.591 47.8198C21.8884 47.9144 22.185 48.0118 22.481 48.1118C22.89 48.2488 23.296 48.3928 23.702 48.5398C23.99 48.6398 24.279 48.7488 24.565 48.8578C24.689 48.9048 24.812 48.9578 24.935 49.0038H2ZM29 48.5018L27.156 47.7318C21.3022 45.2793 15.0997 43.7608 8.775 43.2318L7 43.0838V3.08976L8.526 3.21776C14.6467 3.72351 20.6501 5.18701 26.317 7.55476L29 8.66876V48.5018ZM31 48.5018V8.66876L33.686 7.55376C39.3519 5.18651 45.3542 3.72338 51.474 3.21776L53 3.08976V43.0808L51.357 43.2148C45.0284 43.7401 38.8204 45.2496 32.957 47.6888L31 48.5018ZM58 49.0018H35.08C35.217 48.9488 35.353 48.8928 35.49 48.8408C35.79 48.7258 36.09 48.6168 36.397 48.5078C36.789 48.3658 37.1826 48.2281 37.578 48.0948C37.886 47.9948 38.196 47.8948 38.505 47.7948C38.9 47.6688 39.297 47.5488 39.694 47.4308C40.006 47.3388 40.319 47.2478 40.632 47.1618C41.032 47.0498 41.432 46.9448 41.842 46.8418C42.152 46.7628 42.463 46.6838 42.775 46.6098C43.191 46.5098 43.61 46.4198 44.029 46.3308C44.329 46.2658 44.629 46.1988 44.935 46.1388C45.375 46.0518 45.817 45.9748 46.258 45.8978C46.544 45.8478 46.829 45.7978 47.116 45.7478C47.609 45.6698 48.103 45.6028 48.598 45.5368C48.835 45.5058 49.072 45.4678 49.31 45.4368C50.0434 45.3481 50.7804 45.2724 51.521 45.2098L54.082 45.0018C54.602 44.959 55.0018 44.5235 55 44.0018V9.00176H58V49.0018Z"/>
</symbol><symbol id="icon-food" viewBox="0 0 54 60">
<path d="M48.5341 24.2937C48.2816 23.7876 47.6668 23.5818 47.1607 23.8341C46.6546 24.0864 46.4488 24.7012 46.701 25.2073C47.9764 27.7657 48.623 30.6883 48.623 33.8936C48.623 38.4286 46.5398 44.4319 43.1863 49.5606C39.7505 54.815 35.7558 57.952 32.5005 57.952C31.1442 57.952 29.6889 57.738 28.4028 57.3495C26.3963 56.7434 24.275 56.7434 22.2685 57.3495C20.9823 57.7381 19.5269 57.952 18.1706 57.952C14.9152 57.952 10.9206 54.8149 7.48475 49.5606C4.1312 44.4319 2.04808 38.4286 2.04808 33.8936C2.04808 29.6091 3.23343 25.7581 5.47581 22.7568C7.36241 20.2318 9.99233 18.3823 12.6908 17.6826C14.707 17.1598 17.3655 17.2986 20.3796 18.0832C20.709 18.169 21.046 18.2475 21.3809 18.3163C21.9348 18.4299 22.4762 18.0733 22.5901 17.5193C22.704 16.9654 22.347 16.4241 21.7931 16.3102C21.4929 16.2484 21.191 16.1784 20.8958 16.1015C17.497 15.2165 14.5636 15.0816 12.1768 15.7002C8.98956 16.5265 6.02718 18.5973 3.83507 21.531C1.32621 24.8889 0 29.1638 0 33.8936C0 38.805 2.21109 45.2378 5.77065 50.6813C9.64299 56.6034 14.1626 60 18.1705 60C19.7443 60 21.3662 59.7614 22.8604 59.3101C24.4794 58.8211 26.1911 58.8211 27.8103 59.3101C29.3047 59.7615 30.9264 60 32.5003 60C36.5082 60 41.0277 56.6034 44.9001 50.6813C48.4594 45.2376 50.6707 38.805 50.6707 33.8936C50.671 30.3683 49.952 27.1384 48.5341 24.2937Z"/>
<path d="M46.3958 20.9669C44.2578 18.3375 41.4516 16.4671 38.4939 15.7002C36.1072 15.0815 33.1737 15.2164 29.7748 16.1015C29.0385 16.2933 28.2824 16.4386 27.5275 16.5334C26.9664 16.6039 26.5687 17.1158 26.6391 17.6771C26.7095 18.2381 27.2223 18.6364 27.7827 18.5655C28.6254 18.4596 29.4693 18.2974 30.2911 18.0833C33.3055 17.2985 35.9642 17.1601 37.98 17.6827C40.5178 18.3408 42.9424 19.966 44.8068 22.2588C45.0091 22.5077 45.3043 22.6369 45.6019 22.6369C45.829 22.6369 46.0574 22.5618 46.2472 22.4074C46.6861 22.0506 46.7525 21.4056 46.3958 20.9669Z"/>
<path d="M53.3102 0.770017C52.9719 0.55369 52.5384 0.555096 52.2013 0.773533C50.7308 1.7272 49.0788 1.3774 46.5781 0.848064C46.3607 0.80201 46.1392 0.755252 45.9133 0.70826C45.3597 0.593299 44.8174 0.948962 44.7025 1.50279C44.5875 2.05662 44.9432 2.59861 45.497 2.71357C45.7202 2.75986 45.9392 2.80626 46.1538 2.85173C48.0325 3.24947 49.7313 3.60911 51.332 3.29646C50.562 6.0479 48.5374 11.1528 43.8342 12.9651C39.857 14.4976 36.1197 12.3491 33.1166 10.6228C31.9118 9.9302 30.8474 9.31836 29.9015 9.05235C30.9671 6.79087 33.6102 2.46865 38.3636 2.10759C39.7467 2.00248 41.1223 2.03658 42.5685 2.21154C43.1304 2.27904 43.6402 1.87931 43.7081 1.31799C43.7761 0.756541 43.3759 0.246307 42.8146 0.178339C41.2338 -0.0129109 39.7269 -0.0498249 38.2087 0.0653702C34.9588 0.312167 32.0509 2.0865 29.7995 5.19618C28.3579 7.18754 27.6244 9.11352 27.4381 9.64285L24.7428 13.736C23.9842 11.4419 23.2318 10.004 23.1713 9.89012C22.906 9.39067 22.2861 9.20082 21.7866 9.46602C21.2872 9.73121 21.0973 10.3511 21.3625 10.8506C21.3879 10.8983 23.7501 15.4096 24.2268 21.321C23.4419 21.233 22.7204 21.0529 22.1582 20.7983C21.4797 20.4909 21.2689 20.179 21.2689 20.1003C21.2689 19.5347 20.8104 19.0763 20.2449 19.0763C19.6794 19.0763 19.2209 19.5347 19.2209 20.1003C19.2209 20.7036 19.4928 21.839 21.3132 22.6637C22.4043 23.1581 23.8326 23.4303 25.3348 23.4303C26.8376 23.4303 28.2663 23.1581 29.3576 22.6638C31.1781 21.8391 31.4501 20.7037 31.4501 20.1004C31.4501 19.5349 30.9917 19.0764 30.4261 19.0764C29.8606 19.0764 29.4021 19.5349 29.4021 20.1004C29.4021 20.1792 29.1913 20.4909 28.5127 20.7983C27.9121 21.0704 27.1292 21.2569 26.2817 21.3374C26.1474 19.5178 25.8489 17.8262 25.4859 16.3313L29.0207 10.9634C29.1413 10.9685 29.3593 11.0062 29.7265 11.1513C30.372 11.4066 31.171 11.8659 32.0962 12.3977C34.4982 13.7784 37.5652 15.5421 41.0117 15.5417C42.1594 15.5417 43.3498 15.3459 44.5708 14.8754C52.2336 11.9226 53.7129 2.19033 53.7722 1.77748C53.8293 1.38056 53.6486 0.986228 53.3102 0.770017Z"/>
</symbol><symbol id="icon-health" viewBox="0 0 60 50">
<path d="M42.9873 0.00116125C37.9821 -0.0255871 33.224 2.17258 29.9999 6.00109C26.7961 2.14641 22.0247 -0.058005 17.0126 0.00116125C7.61675 0.00116125 0 7.61791 0 17.0137C0 33.1151 28.1012 48.8365 29.2405 49.4441C29.7002 49.7513 30.2997 49.7513 30.7595 49.4441C31.8988 48.8365 60 33.3429 60 17.0137C60 7.61791 52.3831 0.00116125 42.9873 0.00116125ZM29.9999 46.4062C25.5949 43.8239 3.03798 30.0771 3.03798 17.0137C3.03798 9.2958 9.29463 3.03899 17.0127 3.03899C21.739 2.97692 26.1621 5.36087 28.7089 9.34275C29.226 10.0558 30.2234 10.2147 30.9364 9.69746C31.0726 9.59861 31.1924 9.47896 31.2911 9.34275C35.5149 2.88316 44.1756 1.07066 50.6352 5.29444C54.5896 7.88016 56.9697 12.2889 56.9619 17.0136C56.962 30.2289 34.405 43.8998 29.9999 46.4062Z"/>
</symbol><symbol id="icon-ig" viewBox="0 0 20 20">
<path d="M14.95 5.05H14.959M5.5 1H14.5C16.9853 1 19 3.01472 19 5.5V14.5C19 16.9853 16.9853 19 14.5 19H5.5C3.01472 19 1 16.9853 1 14.5V5.5C1 3.01472 3.01472 1 5.5 1ZM13.6 9.433C13.711 10.182 13.5831 10.947 13.2343 11.6191C12.8856 12.2912 12.3338 12.8363 11.6574 13.1767C10.9811 13.5171 10.2146 13.6356 9.46696 13.5153C8.71937 13.395 8.02874 13.0421 7.49331 12.5066C6.95788 11.9712 6.60491 11.2806 6.48462 10.533C6.36432 9.78539 6.48281 9.0189 6.82325 8.34253C7.16368 7.66616 7.70872 7.11436 8.38084 6.76561C9.05296 6.41686 9.81794 6.28893 10.567 6.4C11.331 6.51329 12.0383 6.86931 12.5845 7.41547C13.1306 7.96163 13.4867 8.66897 13.6 9.433Z" stroke-width="2" stroke-linecap="round" stroke-linejoin="round"/>
</symbol><symbol id="icon-language" viewBox="0 0 60 54">
<path d="M52.0964 19.3993H24.2057C23.7203 19.3993 23.3268 19.7929 23.3268 20.2782C23.3268 20.7636 23.7203 21.1571 24.2057 21.1571H52.0964C52.5817 21.1571 52.9753 20.7636 52.9753 20.2782C52.9753 19.7929 52.5817 19.3993 52.0964 19.3993Z"/>
<path d="M52.0964 26.118H24.2057C23.7203 26.118 23.3268 26.5116 23.3268 26.997C23.3268 27.4823 23.7203 27.8759 24.2057 27.8759H52.0964C52.5817 27.8759 52.9753 27.4823 52.9753 26.997C52.9753 26.5116 52.5817 26.118 52.0964 26.118Z"/>
<path d="M52.0964 32.8368H24.2057C23.7203 32.8368 23.3268 33.2303 23.3268 33.7157C23.3268 34.2011 23.7203 34.5946 24.2057 34.5946H52.0964C52.5817 34.5946 52.9753 34.2011 52.9753 33.7157C52.9753 33.2303 52.5817 32.8368 52.0964 32.8368Z"/>
<path d="M54.888 11.7128H21.4139C18.5951 11.7128 16.3019 14.0059 16.3019 16.8247V37.8736C16.3019 40.6923 18.595 42.9855 21.4139 42.9855H44.8761C45.127 42.9855 45.3601 43.0984 45.5157 43.2954L53.0924 52.8875C53.391 53.2656 53.8267 53.4716 54.283 53.4716C54.4525 53.4716 54.625 53.4431 54.7942 53.3843C55.4185 53.1675 55.8219 52.6004 55.8219 51.9396V42.8982C58.192 42.4555 59.9999 40.3601 59.9999 37.8736V16.8246C59.9999 14.0059 57.7068 11.7128 54.888 11.7128ZM58.2421 37.8736C58.2421 39.699 56.757 41.2031 54.9316 41.2263C54.4506 41.2325 54.0639 41.6242 54.0639 42.1052V51.2816L46.8951 42.2058C46.4042 41.5841 45.6683 41.2276 44.8761 41.2276H21.4139C19.5644 41.2276 18.0597 39.7229 18.0597 37.8735V16.8246C18.0597 14.9751 19.5643 13.4705 21.4139 13.4705H54.888C56.7374 13.4705 58.2421 14.9751 58.2421 16.8246V37.8736Z"/>
<path d="M12.9485 26.2454C12.3473 26.3307 11.809 26.6402 11.4326 27.1167L5.39496 34.7604V27.0997C5.39496 26.6187 5.00824 26.227 4.5273 26.2208C3.00023 26.2014 1.75781 24.9431 1.75781 23.4159V5.09239C1.75781 3.54516 3.01664 2.28633 4.56387 2.28633H33.7041C35.2513 2.28633 36.5101 3.54516 36.5101 5.09239V8.48285C36.5101 8.96825 36.9036 9.36176 37.389 9.36176C37.8744 9.36176 38.2679 8.96825 38.2679 8.48285V5.09239C38.2679 2.5759 36.2205 0.528519 33.7041 0.528519H4.56387C2.04738 0.528519 0 2.5759 0 5.09239V23.4159C0 25.6035 1.56691 27.4516 3.63727 27.8836V35.6609C3.63727 36.2852 4.01836 36.8211 4.60828 37.026C4.76824 37.0815 4.93113 37.1085 5.09144 37.1085C5.52234 37.1085 5.93426 36.9137 6.21633 36.5566L12.8121 28.2063C12.9073 28.0857 13.0436 28.0075 13.1957 27.9858C13.6762 27.9176 14.0106 27.4726 13.9423 26.992C13.8741 26.5114 13.4298 26.1769 12.9485 26.2454Z"/>
</symbol><symbol id="icon-ok" viewBox="0 0 13 20">
<path d="M6.49998 10.8232C9.6111 10.8232 12.1332 8.40035 12.1332 5.41158C12.1332 2.42281 9.61114 0 6.49998 0C3.38882 0 0.866795 2.42285 0.866795 5.41162C0.870614 8.39883 3.39045 10.8195 6.49998 10.8232ZM6.49998 2.49766C8.1752 2.49766 9.53326 3.80227 9.53326 5.41162C9.53326 7.02098 8.17524 8.32558 6.49998 8.32558C4.82472 8.32558 3.4667 7.02098 3.4667 5.41162C3.4667 3.80227 4.82476 2.49766 6.49998 2.49766Z"/>
<path d="M12.0179 13.3875C12.6301 13.0001 12.999 12.3434 12.9998 11.6391C13.0084 11.0547 12.6651 10.518 12.1185 10.2612C11.5569 9.99176 10.8846 10.0524 10.3852 10.4178C8.07027 12.039 4.93055 12.039 2.61567 10.4178C2.11542 10.0544 1.44435 9.99375 0.882358 10.2612C0.336004 10.518 -0.00747324 11.054 0.000123474 11.6383C0.00142345 12.3424 0.370169 12.999 0.98205 13.3866C1.76707 13.8882 2.62196 14.2806 3.52134 14.5522C3.67389 14.5977 3.8313 14.6399 3.99368 14.6788L1.37468 17.139C0.687647 17.7794 0.671031 18.8335 1.33763 19.4935C2.00423 20.1536 3.10153 20.1695 3.78861 19.5291C3.80291 19.5158 3.81696 19.5022 3.83078 19.4884L6.50007 16.8342L9.17456 19.4934C9.84059 20.1539 10.9379 20.1707 11.6255 19.5309C12.3131 18.8911 12.3305 17.8369 11.6645 17.1764C11.6506 17.1626 11.6364 17.149 11.622 17.1356L9.00727 14.6779C9.1696 14.638 9.32763 14.5955 9.48131 14.5505C10.3797 14.2799 11.2338 13.8884 12.0179 13.3875Z"/>
</symbol><symbol id="icon-security" viewBox="0 0 47 60">
<path d="M46.1274 12.1483L23.5768 0.13221C23.2423 -0.0463404 22.8413 -0.0438346 22.5093 0.138475L0.582639 12.1546C0.223031 12.352 0 12.7291 0 13.1395V28.8356C0.0131564 41.7382 7.65763 53.4111 19.4796 58.5803L22.5231 59.9065C22.8075 60.0306 23.1314 60.0312 23.4164 59.9078L26.8459 58.4268C38.8871 53.3697 46.7207 41.5841 46.722 28.5243V13.1395C46.722 12.7247 46.4933 12.3432 46.1274 12.1483ZM44.4766 28.5243C44.4741 40.6839 37.1786 51.6556 25.9669 56.3612L25.9594 56.365L22.9729 57.6543L20.3779 56.5222C9.37359 51.7108 2.25725 40.8461 2.24472 28.8356V13.8042L23.0562 2.39824L44.4766 13.8123V28.5243Z"/>
<path d="M14.7734 28.1077C14.3705 27.6359 13.662 27.5802 13.1902 27.983C12.7185 28.3852 12.6627 29.0944 13.0656 29.5655L18.9959 36.5102C19.3919 36.9738 20.0854 37.0371 20.5578 36.6524L34.3694 25.4156C34.8506 25.0247 34.9233 24.3174 34.5317 23.8362C34.1408 23.3557 33.4335 23.2824 32.9523 23.674L19.9914 34.2179L14.7734 28.1077Z"/>
</symbol><symbol id="icon-teacher" viewBox="0 0 51 54">
<path d="M25.4999 27.75C11.4394 27.75 0 39.0354 0 52.9062C0 53.51 0.496729 54 1.10873 54C1.72073 54 2.21745 53.51 2.21745 52.9062C2.21745 40.2406 12.6613 29.9375 25.5 29.9375C38.3387 29.9375 48.7825 40.2406 48.7825 52.9062C48.7825 53.51 49.2793 54 49.8913 54C50.5033 54 51 53.51 51 52.9062C50.9999 39.0331 39.5604 27.75 25.4999 27.75Z"/>
<path d="M25.4999 0.75C18.79 0.75 13.3283 6.20951 13.3283 12.9216C13.3283 19.6338 18.7901 25.0933 25.4999 25.0933C32.2098 25.0933 37.6716 19.6338 37.6716 12.9216C37.6716 6.20951 32.2099 0.75 25.4999 0.75ZM25.4999 22.8803C20.0094 22.8803 15.5413 18.4122 15.5413 12.9216C15.5413 7.43111 20.0094 2.963 25.4999 2.963C30.9905 2.963 35.4586 7.43111 35.4586 12.9216C35.4586 18.4122 30.9905 22.8803 25.4999 22.8803Z"/>
</symbol><symbol id="icon-video" viewBox="0 0 60 38">
<path d="M59.3773 3.43145C58.991 3.20253 58.5133 3.1936 58.119 3.4086L44.3525 10.9255V6.41526C44.3485 2.90659 41.5052 0.0632986 37.9966 0.0593262H6.35593C2.84726 0.0632986 0.00397246 2.90659 0 6.41526V31.5113C0.00397246 35.0199 2.84726 37.8632 6.35593 37.8672H37.9966C41.5052 37.8632 44.3485 35.0199 44.3525 31.5113V27.083L58.1195 34.5998C58.5133 34.8149 58.9915 34.8064 59.3773 34.5775C59.7636 34.3481 60 33.9325 60 33.4841V4.52437C60 4.07548 59.7631 3.66036 59.3773 3.43145ZM41.8091 31.5118C41.8071 33.6172 40.101 35.3228 37.9956 35.3253H6.35593C4.25053 35.3228 2.54486 33.6172 2.54237 31.5118V6.41526C2.54486 4.31035 4.25053 2.60418 6.35593 2.6017H37.9966C40.1015 2.60418 41.8076 4.31035 41.8101 6.41526L41.8091 31.5118ZM57.4576 31.3419L44.3525 24.1865V13.8219L57.4576 6.66701V31.3419Z"/>
</symbol><symbol id="icon-vk" viewBox="0 0 22 12">
<path d="M21.8833 10.8373C21.8567 10.7824 21.8319 10.7369 21.8088 10.7004C21.4271 10.0432 20.6977 9.23651 19.621 8.28012L19.5982 8.25822L19.5868 8.24748L19.5753 8.23647H19.5638C19.0751 7.79113 18.7657 7.49169 18.6361 7.33838C18.399 7.04634 18.3459 6.75074 18.4754 6.45122C18.567 6.22492 18.9109 5.74701 19.5064 5.01684C19.8196 4.62987 20.0676 4.31973 20.2508 4.08607C21.572 2.40687 22.1448 1.33383 21.9691 0.86655L21.9008 0.757352C21.855 0.691611 21.7366 0.63147 21.5459 0.576621C21.3548 0.521888 21.1105 0.512837 20.8126 0.549313L17.5138 0.571098C17.4604 0.552994 17.3841 0.554682 17.2846 0.576621C17.1853 0.598561 17.1357 0.609569 17.1357 0.609569L17.0783 0.636993L17.0327 0.66994C16.9945 0.691726 16.9525 0.730043 16.9066 0.784815C16.861 0.839395 16.8229 0.903448 16.7924 0.976438C16.4332 1.8598 16.0249 2.68111 15.5666 3.44032C15.284 3.89303 15.0245 4.28536 14.7876 4.61756C14.5509 4.94964 14.3523 5.19431 14.1921 5.35115C14.0316 5.50813 13.8868 5.6339 13.7567 5.72891C13.6269 5.82395 13.5277 5.86411 13.4591 5.84942C13.3903 5.83473 13.3255 5.82016 13.2641 5.80558C13.1573 5.73984 13.0714 5.65043 13.0066 5.53728C12.9415 5.42414 12.8977 5.28172 12.8748 5.11016C12.852 4.93848 12.8385 4.79081 12.8346 4.66666C12.8311 4.54265 12.8327 4.36725 12.8405 4.14095C12.8484 3.91454 12.852 3.76135 12.852 3.68103C12.852 3.40357 12.8576 3.10244 12.869 2.77757C12.8805 2.4527 12.8899 2.1953 12.8977 2.00567C12.9055 1.81585 12.9091 1.61502 12.9091 1.4033C12.9091 1.19157 12.8956 1.02553 12.869 0.90502C12.8427 0.784661 12.8023 0.667831 12.749 0.554567C12.6955 0.441418 12.6171 0.353891 12.5142 0.291756C12.4111 0.229696 12.283 0.180448 12.1305 0.143857C11.7257 0.0562913 11.2103 0.00892239 10.584 0.00155814C9.16374 -0.0130169 8.25113 0.0746635 7.84641 0.264485C7.68605 0.344686 7.54094 0.454267 7.41119 0.592884C7.2737 0.753555 7.25452 0.841236 7.35378 0.855657C7.81202 0.921284 8.13643 1.07827 8.32736 1.32647L8.39617 1.45799C8.44969 1.55288 8.50313 1.72088 8.55661 1.96175C8.61001 2.20262 8.64447 2.46908 8.65963 2.76096C8.69775 3.29399 8.69775 3.75027 8.65963 4.12983C8.6214 4.50955 8.58529 4.80516 8.55083 5.01688C8.51637 5.2286 8.46485 5.40016 8.39617 5.53153C8.32736 5.66294 8.28159 5.74325 8.25864 5.7724C8.23573 5.80155 8.21663 5.81993 8.20147 5.82714C8.10221 5.8635 7.99898 5.88202 7.89214 5.88202C7.78514 5.88202 7.6554 5.83086 7.5027 5.7286C7.35005 5.62635 7.19161 5.48589 7.0274 5.307C6.86319 5.12807 6.678 4.87803 6.47175 4.55684C6.26565 4.23565 6.05181 3.85605 5.83035 3.41803L5.64713 3.10037C5.53258 2.89601 5.37612 2.59845 5.17757 2.20796C4.97889 1.8173 4.80329 1.43943 4.65063 1.0744C4.58961 0.921091 4.49794 0.804376 4.37577 0.72406L4.31844 0.691112C4.28033 0.661962 4.21915 0.631009 4.13522 0.598023C4.05117 0.565076 3.96346 0.541449 3.87175 0.526912L0.733227 0.548699C0.412511 0.548699 0.194901 0.61816 0.0803196 0.756892L0.0344628 0.822518C0.0115545 0.859071 0 0.917448 0 0.997802C0 1.07812 0.0229083 1.17669 0.0687651 1.29341C0.526932 2.32287 1.02518 3.3157 1.5635 4.27205C2.10183 5.22841 2.56963 5.99878 2.96661 6.58247C3.36367 7.16659 3.7684 7.71787 4.18079 8.23605C4.59318 8.75442 4.86616 9.08662 4.99972 9.23256C5.13343 9.37877 5.23847 9.48809 5.31482 9.56108L5.60123 9.82385C5.7845 9.9991 6.05362 10.209 6.40872 10.4535C6.7639 10.6982 7.15711 10.939 7.58856 11.1765C8.02009 11.4136 8.5221 11.607 9.09489 11.7567C9.6676 11.9064 10.225 11.9665 10.7672 11.9375H12.0845C12.3517 11.9155 12.5541 11.8352 12.6917 11.6966L12.7372 11.6417C12.7679 11.5981 12.7966 11.5304 12.8231 11.4393C12.8499 11.3481 12.8632 11.2475 12.8632 11.1382C12.8554 10.8243 12.8803 10.5414 12.9375 10.2896C12.9946 10.0378 13.0596 9.84801 13.1324 9.72018C13.2052 9.59245 13.2872 9.48467 13.3786 9.3973C13.4701 9.30974 13.5354 9.25669 13.5737 9.23843C13.6117 9.22006 13.6421 9.20759 13.665 9.20012C13.8482 9.14174 14.0639 9.19827 14.3123 9.36999C14.5606 9.54156 14.7934 9.75339 15.0111 10.0052C15.2288 10.2572 15.4903 10.5399 15.7957 10.8537C16.1013 11.1677 16.3685 11.4011 16.5975 11.5546L16.8265 11.686C16.9794 11.7737 17.178 11.854 17.4224 11.927C17.6663 12 17.8801 12.0182 18.0636 11.9818L20.9959 11.938C21.2859 11.938 21.5116 11.8921 21.6716 11.801C21.832 11.7098 21.9273 11.6093 21.9581 11.4999C21.9887 11.3904 21.9904 11.2662 21.9639 11.1274C21.9367 10.9889 21.91 10.8921 21.8833 10.8373Z"/>
</symbol><symbol id="icon-walk" viewBox="0 0 57 48">
<path d="M55.3129 41.8125H52.1569L36.6237 8.91857L37.3083 6.52232C37.4839 5.90782 37.5319 5.26391 37.4495 4.63016C37.3671 3.99641 37.1559 3.38621 36.829 2.83706C36.5021 2.2879 36.0664 1.81139 35.5486 1.43681C35.0308 1.06222 34.4419 0.797478 33.818 0.658839L32.7151 0.413683C31.5488 0.155827 30.328 0.352396 29.3016 0.963331C28.2752 1.57427 27.5204 2.55359 27.191 3.70173L24.8736 11.8125H22.9902L21.6237 8.91857L22.3083 6.52232C22.4839 5.90782 22.5319 5.26391 22.4495 4.63016C22.3671 3.99641 22.1559 3.38621 21.829 2.83706C21.5021 2.2879 21.0664 1.81139 20.5486 1.43681C20.0308 1.06222 19.4419 0.797478 18.818 0.658839L17.6841 0.406886C16.525 0.152598 15.3126 0.346062 14.2903 0.948458C13.2679 1.55085 12.5111 2.51761 12.1719 3.65474L0.0355625 46.2442C0.00196774 46.3627 -0.00795819 46.4867 0.00635128 46.609C0.0206607 46.7313 0.0589254 46.8496 0.118961 46.9572C0.178996 47.0647 0.259626 47.1594 0.356247 47.2358C0.452868 47.3122 0.563589 47.3688 0.682086 47.4024C0.800583 47.436 0.924537 47.4459 1.04687 47.4316C1.1692 47.4173 1.28752 47.379 1.39507 47.319C1.50261 47.2589 1.59728 47.1783 1.67367 47.0817C1.75005 46.9851 1.80666 46.8743 1.84025 46.7558L3.24146 41.8125H16.3021L15.0365 46.2422C15.0026 46.3606 14.9924 46.4845 15.0065 46.6068C15.0205 46.7291 15.0584 46.8475 15.1182 46.9551C15.178 47.0628 15.2584 47.1576 15.3548 47.2341C15.4512 47.3107 15.5617 47.3676 15.6801 47.4014C15.7985 47.4353 15.9224 47.4455 16.0447 47.4315C16.167 47.4174 16.2854 47.3795 16.393 47.3197C16.5006 47.2599 16.5955 47.1796 16.672 47.0832C16.7486 46.9868 16.8055 46.8762 16.8393 46.7578L22.8692 25.6533L32.9027 46.9006C32.9786 47.0612 33.0986 47.1969 33.2486 47.292C33.3987 47.3871 33.5727 47.4375 33.7504 47.4375H55.3129C55.5615 47.4375 55.8 47.3387 55.9758 47.1629C56.1516 46.9871 56.2504 46.7487 56.2504 46.5V42.75C56.2504 42.5014 56.1516 42.2629 55.9758 42.0871C55.8 41.9113 55.5615 41.8125 55.3129 41.8125ZM28.9939 4.21689C29.1913 3.52789 29.6441 2.94017 30.26 2.57359C30.8759 2.20701 31.6084 2.08918 32.3082 2.24415L33.4113 2.48919C33.7856 2.57238 34.1389 2.73123 34.4496 2.95598C34.7603 3.18074 35.0217 3.46664 35.2178 3.79614C35.414 4.12563 35.5407 4.49175 35.5901 4.87199C35.6396 5.25224 35.6107 5.63858 35.5054 6.00728L34.9182 8.06251H27.8951L28.9939 4.21689ZM13.9704 4.18595C14.174 3.50379 14.628 2.92383 15.2413 2.56241C15.8547 2.20099 16.582 2.08483 17.2774 2.23724L18.4113 2.48919C18.7856 2.57238 19.139 2.73123 19.4496 2.95599C19.7603 3.18075 20.0218 3.46667 20.2179 3.79618C20.414 4.12568 20.5407 4.49182 20.5901 4.87208C20.6396 5.25234 20.6108 5.63869 20.5054 6.00739L19.9183 8.06251H12.8248L13.9704 4.18595ZM6.96275 28.6875L8.02599 24.9375H21.1236L20.0521 28.6875H6.96275ZM19.5165 30.5625L18.445 34.3125H5.36759L6.43084 30.5625H19.5165ZM8.55756 23.0625L9.6208 19.3125H19.8747L21.6455 23.0625H8.55756ZM10.1525 17.4375L11.2157 13.6875H17.2189L18.9897 17.4375H10.1525ZM3.77302 39.9375L4.83627 36.1875H17.9093L16.8379 39.9375H3.77302ZM39.3754 45.5625H34.3444L18.6606 12.3497C18.5848 12.189 18.4648 12.0532 18.3147 11.9581C18.1646 11.863 17.9906 11.8125 17.8129 11.8125H11.7473L12.279 9.93751H20.0314L35.7152 43.1503C35.791 43.311 35.911 43.4468 36.0611 43.5419C36.2112 43.637 36.3852 43.6875 36.5629 43.6875H39.3754V45.5625ZM41.2504 45.5625V42.75C41.2504 42.5014 41.1516 42.2629 40.9758 42.0871C40.8 41.9113 40.5615 41.8125 40.3129 41.8125H37.1569L23.8757 13.6875H32.2189L47.2709 45.5625H41.2504ZM54.3754 45.5625H49.3444L33.6606 12.3497C33.5848 12.189 33.4648 12.0532 33.3147 11.9581C33.1646 11.863 32.9906 11.8125 32.8129 11.8125H26.8237L27.3593 9.93751H35.0314L50.7152 43.1503C50.791 43.311 50.911 43.4468 51.0611 43.5419C51.2112 43.637 51.3852 43.6875 51.5629 43.6875H54.3754V45.5625Z"/>
</symbol></svg>