<svg width="183" height="28" viewBox="0 0 183 28" fill="none" xmlns="http://www.w3.org/2000/svg">
<path d="M14.3435 27.0682C14.5318 27.0682 14.6447 26.8424 14.6824 26.7671C20.6306 12.16 23.5294 4.89412 24.8471 2.74824C25.3741 1.92 26.3529 0.978824 27.2565 0.978824C27.6706 0.978824 27.8588 0.865882 27.8588 0.715296C27.8588 0.640001 27.7082 0.489412 27.4071 0.489412C26.1647 0.489412 25.3741 0.602354 24.5459 0.602354C23.4541 0.602354 22.7012 0.489412 21.9106 0.489412C21.4212 0.489412 21.3082 0.640001 21.3082 0.752943C21.3082 0.903531 21.5341 0.978824 21.76 0.978824C22.0235 0.978824 22.3624 1.16706 22.3624 1.54353C22.3624 2.71059 20.6682 6.92706 14.8706 21.0824C10.6165 11.5576 6.73882 2.78588 6.73882 1.69412C6.73882 1.01647 7.07765 0.978825 7.34118 0.941178C7.56706 0.941178 7.83059 0.941178 7.83059 0.715296C7.83059 0.564708 7.68 0.489412 7.30353 0.489412C6.21177 0.489412 5.57177 0.602354 4.55529 0.602354C3.23765 0.602354 2.29647 0.489412 1.35529 0.489412C0.0376472 0.489412 0 0.564708 0 0.752943C0 0.828236 0.112941 0.978824 0.301177 0.978824C0.527059 0.978824 0.90353 0.978824 1.16706 1.05412C2.37176 1.35529 3.12471 2.14588 3.80235 3.65176C6.62588 9.93883 11.2565 20.9318 14.0424 26.7671C14.0424 26.7671 14.1553 27.0682 14.3435 27.0682Z" fill="white"/>
<path d="M36.9462 13.6659C36.9462 8.88471 37.1344 2.6353 37.3603 1.65647C37.5109 1.01647 38.0379 0.978824 38.4144 0.978824H38.7532C39.0921 0.978824 39.2426 0.903531 39.2426 0.752943C39.2426 0.564708 39.0921 0.489412 38.3015 0.489412C37.1344 0.489412 36.3062 0.602354 35.4403 0.602354C34.3485 0.602354 33.4827 0.489412 32.6168 0.489412C31.8262 0.489412 31.6756 0.564708 31.6756 0.752943C31.6756 0.903531 31.8262 0.978824 32.165 0.978824H32.5038C32.8803 0.978824 33.4074 1.01647 33.5579 1.65647C33.7838 2.6353 33.9721 8.88471 33.9721 13.6659C33.9721 18.4471 33.7838 24.6965 33.5579 25.6753C33.4074 26.3153 32.8803 26.3529 32.5038 26.3529H32.165C31.8262 26.3529 31.6756 26.4282 31.6756 26.5788C31.6756 26.7671 31.8262 26.8424 32.6168 26.8424C33.7838 26.8424 34.6121 26.7294 35.4403 26.7294C36.5697 26.7294 37.4356 26.8424 38.3015 26.8424C39.0921 26.8424 39.2426 26.7671 39.2426 26.5788C39.2426 26.4282 39.0921 26.3529 38.7532 26.3529H38.4144C38.0379 26.3529 37.5109 26.3153 37.3603 25.6753C37.1344 24.6965 36.9462 18.4471 36.9462 13.6659Z" fill="white"/>
<path d="M45.9521 24.5459C45.8391 26.24 45.0862 26.3529 44.6721 26.3529H44.3332C43.9944 26.3529 43.8438 26.4282 43.8438 26.5788C43.8438 26.7671 43.9944 26.8424 44.785 26.8424C45.7262 26.8424 46.4038 26.7294 47.0815 26.7294C48.2109 26.7294 49.0391 26.8424 49.905 26.8424C50.6956 26.8424 50.8462 26.7671 50.8462 26.5788C50.8462 26.4282 50.6956 26.3529 50.3568 26.3529H50.0179C49.2274 26.3529 48.5874 26.1647 48.4744 24.5459C48.3615 22.6635 48.1356 17.5059 48.1356 5.91059C54.5356 12.2353 64.5873 22.8518 68.1262 26.3153C68.2768 26.4659 68.6156 26.8424 68.7662 26.8424C69.0297 26.8424 69.0297 26.6918 69.0297 26.6165C69.0297 26.5412 68.9921 26.0894 68.9921 25.9765C68.9544 21.2329 68.9544 17.1671 68.9544 13.8165C68.9544 7.7553 69.0297 3.99059 69.2179 2.67294C69.4438 1.35529 69.9332 0.978824 70.4979 0.978824H70.8368C71.1756 0.978824 71.3262 0.903531 71.3262 0.752943C71.3262 0.564708 71.1756 0.489412 70.385 0.489412C69.4062 0.489412 68.7285 0.602354 68.0509 0.602354C66.9215 0.602354 66.0556 0.489412 65.1897 0.489412C64.4368 0.489412 64.2862 0.564708 64.2862 0.752943C64.2862 0.903531 64.4368 0.978824 64.7379 0.978824H65.0768C66.0556 0.978824 66.4321 1.31765 66.6579 2.67294C66.8838 3.99059 66.8838 6.09883 66.8838 11.7835V20.9318C62.7803 17.0165 49.8297 3.61412 46.7426 0.414119C46.5921 0.263531 46.4038 0 46.2156 0C45.9521 0 45.9521 0.150589 45.9521 0.414119C45.9521 1.35529 45.9897 1.73176 45.9897 3.80235C46.0274 8.58353 46.065 12.8753 46.065 16.4141C46.065 19.9153 46.0274 22.6635 45.9521 24.5459Z" fill="white"/>
<path d="M86.7844 14.4941C89.0809 14.4941 89.495 15.0965 89.6079 15.6235C89.6456 15.7365 89.6456 16.0376 89.6456 16.1506C89.6456 16.3765 89.7962 16.4518 89.9091 16.4518C90.0221 16.4518 90.135 16.3765 90.135 16.1882V14.0424C90.135 13.1012 90.2479 12.3859 90.2479 11.6329C90.2479 11.52 90.2479 11.3318 90.0221 11.3318C89.8715 11.3318 89.7585 11.3694 89.7209 11.8965C89.6832 12.3859 89.1185 12.9882 85.9185 12.9882C83.1703 12.9882 81.4009 12.9129 81.2879 12.9129C81.2127 12.9129 81.175 12.8753 81.175 12.6871C81.175 8.43294 81.175 3.38824 81.2879 1.92H86.8974C88.1021 1.92 89.9091 2.10824 89.9091 3.50118C89.9091 3.95294 90.0221 4.02824 90.2103 4.02824C90.3985 4.02824 90.4738 3.87765 90.4738 3.57647C90.4738 3.38824 90.4362 3.04941 90.4362 1.88235C90.4362 1.28 90.5115 1.01647 90.5115 0.752943C90.5115 0.564708 90.4362 0.527059 90.3609 0.527059C90.2479 0.527059 90.1727 0.602354 90.0974 0.602354H79.6691C78.5397 0.602354 77.6738 0.489412 76.8079 0.489412C76.055 0.489412 75.9044 0.564708 75.9044 0.752943C75.9044 0.903531 76.055 0.978824 76.3938 0.978824H76.7327C77.0715 0.978824 77.5985 1.01647 77.7491 1.65647C77.975 2.6353 78.1632 8.88471 78.1632 13.6659C78.1632 18.4471 77.975 24.6965 77.7491 25.6753C77.6362 26.3153 77.1091 26.4282 76.7327 26.4282H76.3938C76.2432 26.4282 75.9797 26.4282 75.9797 26.6541C75.9797 26.8424 76.2432 26.8424 76.3938 26.8424C77.7115 26.8424 78.6903 26.7294 79.6691 26.7294C80.9115 26.7294 81.9279 26.8424 82.9444 26.8424C83.095 26.8424 83.3585 26.8424 83.3585 26.6541C83.3585 26.4282 83.095 26.4282 82.9444 26.4282H82.6056C82.1915 26.4282 81.6644 26.3153 81.5515 25.6753C81.3256 24.7718 81.175 19.1624 81.175 14.4941H86.7844Z" fill="white"/>
<path d="M95.5868 13.5906C95.5868 21.76 101.196 27.1812 108.914 27.1812C116.669 27.1812 122.241 21.76 122.241 13.5906C122.241 5.57177 116.669 0 108.914 0C101.196 0 95.5868 5.53412 95.5868 13.5906ZM98.8244 12.8C98.8244 6.70118 102.74 1.39294 108.537 1.39294C115.502 1.39294 118.815 8.65883 118.815 14.4188C118.815 20.5553 114.862 25.7882 108.989 25.7882C102.062 25.7882 98.8244 18.56 98.8244 12.8Z" fill="white"/>
<path d="M127.975 26.3529C127.636 26.3529 127.485 26.4282 127.485 26.5788C127.485 26.7671 127.636 26.8424 128.426 26.8424C129.594 26.8424 130.422 26.7294 131.25 26.7294C132.379 26.7294 133.245 26.8424 134.111 26.8424C134.902 26.8424 135.052 26.7671 135.052 26.5788C135.052 26.4282 134.902 26.3529 134.563 26.3529H134.224C133.848 26.3529 133.321 26.3153 133.17 25.6753C132.982 24.8471 132.794 20.5929 132.756 16.4141C133.283 16.4894 134.149 16.5647 134.902 16.5647C136.106 16.5647 137.085 16.3765 137.349 16.3765C137.499 16.3765 137.612 16.4141 137.725 16.5271C139.608 18.4094 143.184 22.9647 145.292 25.1482C147.099 26.9929 149.095 27.0306 151.015 27.0306C151.579 27.0306 152.897 26.8424 152.897 26.5788C152.897 26.3906 152.746 26.3906 152.671 26.3906C152.483 26.3906 152.069 26.5035 151.542 26.5035C150.186 26.5035 147.965 24.0188 141.001 15.8118C140.85 15.6235 140.549 15.3976 140.323 15.2847C142.13 13.7788 144.276 10.5788 144.276 7.41647C144.276 4.32941 141.452 0.451766 135.768 0.451766C134.074 0.451766 132.643 0.602354 131.25 0.602354C130.158 0.602354 129.292 0.489412 128.426 0.489412C127.636 0.489412 127.485 0.564708 127.485 0.752943C127.485 0.903531 127.636 0.978824 127.975 0.978824H128.314C128.69 0.978824 129.217 1.01647 129.368 1.65647C129.594 2.6353 129.782 8.88471 129.782 13.6659C129.782 18.4471 129.594 24.6965 129.368 25.6753C129.217 26.3153 128.69 26.3529 128.314 26.3529H127.975ZM132.756 15.36C132.756 11.1812 132.756 3.38824 132.944 1.76941C133.019 1.61883 133.509 1.58118 134.149 1.58118C137.914 1.58118 141.226 4.02824 141.226 8.84706C141.226 12.7624 139.645 15.5482 135.165 15.5482C134.676 15.5482 133.584 15.4729 132.756 15.36Z" fill="white"/>
<path d="M157.272 25.6753C157.121 26.3153 156.594 26.3529 156.218 26.3529H155.879C155.54 26.3529 155.39 26.4282 155.39 26.5788C155.39 26.7671 155.54 26.8424 156.331 26.8424C157.272 26.8424 157.649 26.8047 158.326 26.8047C161.639 26.8047 164.387 27.2565 167.964 27.2565C177.451 27.2565 182.119 20.3294 182.119 14.3435C182.119 6.21177 177.074 0.301177 165.969 0.301177C163.597 0.301177 161.752 0.451766 160.547 0.527059C159.945 0.564708 159.456 0.602354 159.192 0.602354C158.063 0.602354 157.197 0.489412 156.331 0.489412C155.54 0.489412 155.39 0.564708 155.39 0.752943C155.39 0.903531 155.54 0.978824 155.879 0.978824H156.218C156.594 0.978824 157.121 1.01647 157.272 1.65647C157.498 2.6353 157.686 8.88471 157.686 13.6659C157.686 18.4471 157.498 24.6965 157.272 25.6753ZM160.849 1.69412C161.489 1.58118 164.538 1.43059 165.103 1.43059C174.74 1.43059 178.881 7.64235 178.881 14.3812C178.881 17.8071 177.639 26.1647 167.587 26.1647C164.425 26.1647 160.999 26.0894 160.924 24.0565C160.849 23.5294 160.66 17.28 160.66 13.6659C160.66 9.37412 160.66 3.01177 160.849 1.69412Z" fill="white"/>
</svg>
