<svg width="60" height="52" viewBox="0 0 60 52" xmlns="http://www.w3.org/2000/svg">
<path d="M59 7.00176H55V2.00176C55.002 1.44951 54.5559 1.00013 54.0035 0.998258C53.9743 0.998133 53.9451 0.999383 53.916 1.00176L51.307 1.22176C44.9801 1.74501 38.7746 3.25813 32.917 5.70576L30 6.91876L27.086 5.70976C21.2278 3.26176 15.0215 1.74838 8.694 1.22476L6.084 1.00176C5.53363 0.955383 5.04987 1.36388 5.0035 1.91426C5.001 1.94338 4.99988 1.97263 5 2.00176V7.00176H1C0.44775 7.00176 0 7.44951 0 8.00176V50.0018C0 50.554 0.44775 51.0018 1 51.0018H59C59.5522 51.0018 60 50.554 60 50.0018V8.00176C60 7.44951 59.5522 7.00176 59 7.00176ZM2 49.0038V9.00176H5V44.0018C4.99813 44.5225 5.39612 44.9575 5.915 45.0018L8.606 45.2318C9.33937 45.2931 10.0726 45.3688 10.806 45.4588C11.051 45.4878 11.294 45.5268 11.539 45.5588C12.024 45.6238 12.509 45.6888 12.992 45.7658C13.28 45.8118 13.567 45.8658 13.854 45.9168C14.292 45.9938 14.73 46.0708 15.166 46.1568C15.466 46.2168 15.766 46.2828 16.066 46.3478C16.487 46.4378 16.908 46.5298 17.327 46.6298C17.627 46.7018 17.932 46.7788 18.234 46.8558C18.647 46.9618 19.059 47.0698 19.47 47.1838C19.77 47.2678 20.07 47.3558 20.37 47.4438C20.778 47.5644 21.185 47.6898 21.591 47.8198C21.8884 47.9144 22.185 48.0118 22.481 48.1118C22.89 48.2488 23.296 48.3928 23.702 48.5398C23.99 48.6398 24.279 48.7488 24.565 48.8578C24.689 48.9048 24.812 48.9578 24.935 49.0038H2ZM29 48.5018L27.156 47.7318C21.3022 45.2793 15.0997 43.7608 8.775 43.2318L7 43.0838V3.08976L8.526 3.21776C14.6467 3.72351 20.6501 5.18701 26.317 7.55476L29 8.66876V48.5018ZM31 48.5018V8.66876L33.686 7.55376C39.3519 5.18651 45.3542 3.72338 51.474 3.21776L53 3.08976V43.0808L51.357 43.2148C45.0284 43.7401 38.8204 45.2496 32.957 47.6888L31 48.5018ZM58 49.0018H35.08C35.217 48.9488 35.353 48.8928 35.49 48.8408C35.79 48.7258 36.09 48.6168 36.397 48.5078C36.789 48.3658 37.1826 48.2281 37.578 48.0948C37.886 47.9948 38.196 47.8948 38.505 47.7948C38.9 47.6688 39.297 47.5488 39.694 47.4308C40.006 47.3388 40.319 47.2478 40.632 47.1618C41.032 47.0498 41.432 46.9448 41.842 46.8418C42.152 46.7628 42.463 46.6838 42.775 46.6098C43.191 46.5098 43.61 46.4198 44.029 46.3308C44.329 46.2658 44.629 46.1988 44.935 46.1388C45.375 46.0518 45.817 45.9748 46.258 45.8978C46.544 45.8478 46.829 45.7978 47.116 45.7478C47.609 45.6698 48.103 45.6028 48.598 45.5368C48.835 45.5058 49.072 45.4678 49.31 45.4368C50.0434 45.3481 50.7804 45.2724 51.521 45.2098L54.082 45.0018C54.602 44.959 55.0018 44.5235 55 44.0018V9.00176H58V49.0018Z"/>
</svg>
