<svg width="54" height="60" viewBox="0 0 54 60" xmlns="http://www.w3.org/2000/svg">
<path d="M48.5341 24.2937C48.2816 23.7876 47.6668 23.5818 47.1607 23.8341C46.6546 24.0864 46.4488 24.7012 46.701 25.2073C47.9764 27.7657 48.623 30.6883 48.623 33.8936C48.623 38.4286 46.5398 44.4319 43.1863 49.5606C39.7505 54.815 35.7558 57.952 32.5005 57.952C31.1442 57.952 29.6889 57.738 28.4028 57.3495C26.3963 56.7434 24.275 56.7434 22.2685 57.3495C20.9823 57.7381 19.5269 57.952 18.1706 57.952C14.9152 57.952 10.9206 54.8149 7.48475 49.5606C4.1312 44.4319 2.04808 38.4286 2.04808 33.8936C2.04808 29.6091 3.23343 25.7581 5.47581 22.7568C7.36241 20.2318 9.99233 18.3823 12.6908 17.6826C14.707 17.1598 17.3655 17.2986 20.3796 18.0832C20.709 18.169 21.046 18.2475 21.3809 18.3163C21.9348 18.4299 22.4762 18.0733 22.5901 17.5193C22.704 16.9654 22.347 16.4241 21.7931 16.3102C21.4929 16.2484 21.191 16.1784 20.8958 16.1015C17.497 15.2165 14.5636 15.0816 12.1768 15.7002C8.98956 16.5265 6.02718 18.5973 3.83507 21.531C1.32621 24.8889 0 29.1638 0 33.8936C0 38.805 2.21109 45.2378 5.77065 50.6813C9.64299 56.6034 14.1626 60 18.1705 60C19.7443 60 21.3662 59.7614 22.8604 59.3101C24.4794 58.8211 26.1911 58.8211 27.8103 59.3101C29.3047 59.7615 30.9264 60 32.5003 60C36.5082 60 41.0277 56.6034 44.9001 50.6813C48.4594 45.2376 50.6707 38.805 50.6707 33.8936C50.671 30.3683 49.952 27.1384 48.5341 24.2937Z"/>
<path d="M46.3958 20.9669C44.2578 18.3375 41.4516 16.4671 38.4939 15.7002C36.1072 15.0815 33.1737 15.2164 29.7748 16.1015C29.0385 16.2933 28.2824 16.4386 27.5275 16.5334C26.9664 16.6039 26.5687 17.1158 26.6391 17.6771C26.7095 18.2381 27.2223 18.6364 27.7827 18.5655C28.6254 18.4596 29.4693 18.2974 30.2911 18.0833C33.3055 17.2985 35.9642 17.1601 37.98 17.6827C40.5178 18.3408 42.9424 19.966 44.8068 22.2588C45.0091 22.5077 45.3043 22.6369 45.6019 22.6369C45.829 22.6369 46.0574 22.5618 46.2472 22.4074C46.6861 22.0506 46.7525 21.4056 46.3958 20.9669Z"/>
<path d="M53.3102 0.770017C52.9719 0.55369 52.5384 0.555096 52.2013 0.773533C50.7308 1.7272 49.0788 1.3774 46.5781 0.848064C46.3607 0.80201 46.1392 0.755252 45.9133 0.70826C45.3597 0.593299 44.8174 0.948962 44.7025 1.50279C44.5875 2.05662 44.9432 2.59861 45.497 2.71357C45.7202 2.75986 45.9392 2.80626 46.1538 2.85173C48.0325 3.24947 49.7313 3.60911 51.332 3.29646C50.562 6.0479 48.5374 11.1528 43.8342 12.9651C39.857 14.4976 36.1197 12.3491 33.1166 10.6228C31.9118 9.9302 30.8474 9.31836 29.9015 9.05235C30.9671 6.79087 33.6102 2.46865 38.3636 2.10759C39.7467 2.00248 41.1223 2.03658 42.5685 2.21154C43.1304 2.27904 43.6402 1.87931 43.7081 1.31799C43.7761 0.756541 43.3759 0.246307 42.8146 0.178339C41.2338 -0.0129109 39.7269 -0.0498249 38.2087 0.0653702C34.9588 0.312167 32.0509 2.0865 29.7995 5.19618C28.3579 7.18754 27.6244 9.11352 27.4381 9.64285L24.7428 13.736C23.9842 11.4419 23.2318 10.004 23.1713 9.89012C22.906 9.39067 22.2861 9.20082 21.7866 9.46602C21.2872 9.73121 21.0973 10.3511 21.3625 10.8506C21.3879 10.8983 23.7501 15.4096 24.2268 21.321C23.4419 21.233 22.7204 21.0529 22.1582 20.7983C21.4797 20.4909 21.2689 20.179 21.2689 20.1003C21.2689 19.5347 20.8104 19.0763 20.2449 19.0763C19.6794 19.0763 19.2209 19.5347 19.2209 20.1003C19.2209 20.7036 19.4928 21.839 21.3132 22.6637C22.4043 23.1581 23.8326 23.4303 25.3348 23.4303C26.8376 23.4303 28.2663 23.1581 29.3576 22.6638C31.1781 21.8391 31.4501 20.7037 31.4501 20.1004C31.4501 19.5349 30.9917 19.0764 30.4261 19.0764C29.8606 19.0764 29.4021 19.5349 29.4021 20.1004C29.4021 20.1792 29.1913 20.4909 28.5127 20.7983C27.9121 21.0704 27.1292 21.2569 26.2817 21.3374C26.1474 19.5178 25.8489 17.8262 25.4859 16.3313L29.0207 10.9634C29.1413 10.9685 29.3593 11.0062 29.7265 11.1513C30.372 11.4066 31.171 11.8659 32.0962 12.3977C34.4982 13.7784 37.5652 15.5421 41.0117 15.5417C42.1594 15.5417 43.3498 15.3459 44.5708 14.8754C52.2336 11.9226 53.7129 2.19033 53.7722 1.77748C53.8293 1.38056 53.6486 0.986228 53.3102 0.770017Z"/>
</svg>
