<svg width="60" height="52" viewBox="0 0 60 52" xmlns="http://www.w3.org/2000/svg">
<path d="M59.5633 23.7333L31.562 0.848003C30.6525 0.104865 29.3463 0.104865 28.4373 0.848003L21.2651 6.71086V3.66787C21.2651 3.01062 20.7331 2.47968 20.0759 2.47968H13.1741C12.5168 2.47968 11.9848 3.01114 11.9848 3.66787V14.2954L0.436445 23.7333C-0.0724555 24.1481 -0.146544 24.8977 0.268142 25.4061C0.503593 25.6931 0.845926 25.8438 1.19121 25.8438C1.45564 25.8438 1.72093 25.7552 1.94215 25.5758L7.93688 20.675V50.5204C7.93688 51.1772 8.46886 51.7093 9.12472 51.7093H50.8754C51.5315 51.7093 52.0646 51.1773 52.0646 50.5204V20.6757L58.0594 25.5765C58.2802 25.7564 58.5464 25.8445 58.81 25.8445C59.1542 25.8445 59.4964 25.6936 59.732 25.4066C60.1463 24.8977 60.0722 24.1492 59.5633 23.7333ZM14.3628 4.85605H18.8863V8.65381L14.3628 12.3513V4.85605ZM49.6871 49.3312H10.3133V18.7322L28.9821 3.47406C29.5744 2.98979 30.425 2.98979 31.0175 3.47406L49.6871 18.7322V49.3312Z"/>
</svg>
